<svg id="Calque_1" data-name="Calque 1" xmlns="http://www.w3.org/2000/svg" width="142.54" height="31.68" viewBox="0 0 142.54 31.68"><defs><style>.cls-1{fill:#1d1d1b;stroke:#1d1d1b;}.cls-1,.cls-2{stroke-miterlimit:10;stroke-width:4px;}.cls-2{fill:#5743be;stroke:#7469ad;}</style></defs><path class="cls-1" d="M36.45,60.72V50.42l-7.67-14h3.57l3.42,6.69c.93,1.84,1.65,3.31,2.41,5h.07c.68-1.59,1.51-3.17,2.45-5l3.49-6.69h3.56L39.62,50.39V60.72Z" transform="translate(-25.4 -31.44)"/><path class="cls-1" d="M63.56,51.86c0,6.45-4.47,9.25-8.68,9.25-4.71,0-8.35-3.45-8.35-9,0-5.83,3.82-9.25,8.64-9.25C60.17,42.9,63.56,46.54,63.56,51.86ZM49.73,52c0,3.82,2.2,6.7,5.3,6.7S60.32,55.9,60.32,52c0-2.95-1.48-6.69-5.22-6.69S49.73,48.73,49.73,52Z" transform="translate(-25.4 -31.44)"/><path class="cls-1" d="M82.24,56c0,1.8,0,3.38.14,4.75h-2.8l-.18-2.85h-.08a6.53,6.53,0,0,1-5.76,3.24c-2.73,0-6-1.51-6-7.63V43.3h3.17v9.64c0,3.32,1,5.55,3.89,5.55a4.57,4.57,0,0,0,4.17-2.88A4.67,4.67,0,0,0,79.07,54V43.3h3.17Z" transform="translate(-25.4 -31.44)"/><path class="cls-1" d="M87.71,36.46h13.07v2.63H90.85v8.06H100v2.59H90.85v11H87.71Z" transform="translate(-25.4 -31.44)"/><path class="cls-1" d="M119.9,51.86c0,6.45-4.47,9.25-8.68,9.25-4.71,0-8.35-3.45-8.35-9,0-5.83,3.82-9.25,8.64-9.25C116.51,42.9,119.9,46.54,119.9,51.86ZM106.07,52c0,3.82,2.2,6.7,5.29,6.7s5.3-2.84,5.3-6.77c0-2.95-1.48-6.69-5.22-6.69S106.07,48.73,106.07,52Z" transform="translate(-25.4 -31.44)"/><path class="cls-1" d="M124,48.73c0-2,0-3.81-.14-5.43h2.77l.11,3.42h.14a5.23,5.23,0,0,1,4.82-3.82,3.46,3.46,0,0,1,.9.11v3a4.79,4.79,0,0,0-1.08-.11c-2.23,0-3.81,1.69-4.24,4.07a8,8,0,0,0-.15,1.47v9.29H124Z" transform="translate(-25.4 -31.44)"/><path class="cls-1" d="M136,48c0-1.8,0-3.27-.15-4.71h2.77l.15,2.8h.1a6,6,0,0,1,5.48-3.2,5.16,5.16,0,0,1,4.93,3.49h.07a7,7,0,0,1,1.94-2.26,5.93,5.93,0,0,1,3.86-1.23c2.3,0,5.72,1.51,5.72,7.56V60.72h-3.1V50.86c0-3.35-1.22-5.37-3.78-5.37a4.09,4.09,0,0,0-3.74,2.88A5.36,5.36,0,0,0,150,50V60.72h-3.1V50.28c0-2.77-1.22-4.79-3.63-4.79a4.72,4.72,0,0,0-4.18,4.72V60.72H136Z" transform="translate(-25.4 -31.44)"/><path class="cls-2" d="M41.49,57.7V47.4l-7.67-14h3.57l3.42,6.69c.93,1.84,1.65,3.31,2.41,5h.07c.69-1.58,1.51-3.16,2.45-5l3.49-6.69h3.56L44.66,47.37V57.7Z" transform="translate(-25.4 -31.44)"/><path class="cls-2" d="M68.6,48.84c0,6.44-4.47,9.25-8.68,9.25-4.71,0-8.35-3.45-8.35-9,0-5.83,3.82-9.25,8.64-9.25C65.21,39.88,68.6,43.51,68.6,48.84ZM54.78,49c0,3.82,2.19,6.7,5.29,6.7s5.29-2.85,5.29-6.77c0-3-1.48-6.7-5.22-6.7S54.78,45.71,54.78,49Z" transform="translate(-25.4 -31.44)"/><path class="cls-2" d="M87.28,52.94c0,1.8,0,3.39.15,4.76H84.62l-.18-2.85h-.07a6.55,6.55,0,0,1-5.76,3.24c-2.74,0-6-1.51-6-7.63V40.27h3.16v9.65c0,3.31,1,5.54,3.89,5.54A4.43,4.43,0,0,0,84.11,51V40.27h3.17Z" transform="translate(-25.4 -31.44)"/><path class="cls-2" d="M92.76,33.44h13.06v2.62H95.89v8.07h9.18v2.59H95.89v11H92.76Z" transform="translate(-25.4 -31.44)"/><path class="cls-2" d="M124.94,48.84c0,6.44-4.46,9.25-8.68,9.25-4.71,0-8.35-3.45-8.35-9,0-5.83,3.82-9.25,8.64-9.25C121.55,39.88,124.94,43.51,124.94,48.84ZM111.12,49c0,3.82,2.19,6.7,5.29,6.7s5.29-2.85,5.29-6.77c0-3-1.48-6.7-5.22-6.7S111.12,45.71,111.12,49Z" transform="translate(-25.4 -31.44)"/><path class="cls-2" d="M129,45.71c0-2.05,0-3.82-.14-5.44h2.77l.11,3.42h.14a5.22,5.22,0,0,1,4.83-3.81,3.13,3.13,0,0,1,.9.11v3a5,5,0,0,0-1.08-.1c-2.24,0-3.82,1.69-4.25,4.06a9.25,9.25,0,0,0-.15,1.48V57.7H129Z" transform="translate(-25.4 -31.44)"/><path class="cls-2" d="M141.07,45c0-1.8,0-3.28-.15-4.72h2.78l.14,2.81H144a6,6,0,0,1,5.47-3.2,5.16,5.16,0,0,1,4.93,3.49h.07a7.22,7.22,0,0,1,2-2.27,5.93,5.93,0,0,1,3.85-1.22c2.3,0,5.72,1.51,5.72,7.56V57.7h-3.09V47.83c0-3.34-1.23-5.36-3.78-5.36a4.11,4.11,0,0,0-3.75,2.88,5.34,5.34,0,0,0-.25,1.58V57.7H152V47.26c0-2.77-1.22-4.79-3.63-4.79a4.31,4.31,0,0,0-3.92,3.17,4.39,4.39,0,0,0-.26,1.55V57.7h-3.09Z" transform="translate(-25.4 -31.44)"/></svg>